<svg xmlns="http://www.w3.org/2000/svg" xmlns:xlink="http://www.w3.org/1999/xlink" width="170" zoomAndPan="magnify" viewBox="0 0 127.5 127.499994" height="170" preserveAspectRatio="xMidYMid meet" version="1.0"><defs><g/><clipPath id="a483c48f05"><path d="M 0 0 L 127 0 L 127 127 L 0 127 Z M 0 0 " clip-rule="nonzero"/></clipPath><clipPath id="d849ac93a6"><path d="M 63.53125 0 C 28.445312 0 0 28.445312 0 63.53125 C 0 98.617188 28.445312 127.0625 63.53125 127.0625 C 98.617188 127.0625 127.0625 98.617188 127.0625 63.53125 C 127.0625 28.445312 98.617188 0 63.53125 0 Z M 63.53125 0 " clip-rule="nonzero"/></clipPath><clipPath id="d424aa9e5c"><path d="M 0 0 L 127 0 L 127 127 L 0 127 Z M 0 0 " clip-rule="nonzero"/></clipPath><clipPath id="dd73774f7e"><path d="M 63.53125 0 C 28.445312 0 0 28.445312 0 63.53125 C 0 98.617188 28.445312 127.0625 63.53125 127.0625 C 98.617188 127.0625 127.0625 98.617188 127.0625 63.53125 C 127.0625 28.445312 98.617188 0 63.53125 0 Z M 63.53125 0 " clip-rule="nonzero"/></clipPath><clipPath id="a017933faa"><rect x="0" width="127" y="0" height="127"/></clipPath><clipPath id="8845792f63"><rect x="0" width="60" y="0" height="85"/></clipPath><clipPath id="3faca929da"><rect x="0" width="52" y="0" height="85"/></clipPath><clipPath id="61254d9f13"><rect x="0" width="127" y="0" height="127"/></clipPath></defs><g transform="matrix(1, 0, 0, 1, 0, 0.000000000000007293)"><g clip-path="url(#61254d9f13)"><g clip-path="url(#a483c48f05)"><g clip-path="url(#d849ac93a6)"><g transform="matrix(1, 0, 0, 1, 0, 0.000000000000007293)"><g clip-path="url(#a017933faa)"><g clip-path="url(#d424aa9e5c)"><g clip-path="url(#dd73774f7e)"><rect x="-46.41" width="220.32" fill="#281668" y="-46.409998" height="220.31999" fill-opacity="1"/></g></g></g></g></g></g><g transform="matrix(1, 0, 0, 1, 22, 9)"><g clip-path="url(#8845792f63)"><g fill="#ffffff" fill-opacity="1"><g transform="translate(0.314216, 63.774682)"><g><path d="M 48.59375 -20.859375 C 48.59375 -17.316406 48.242188 -14.195312 47.546875 -11.5 C 46.859375 -8.8125 45.738281 -6.570312 44.1875 -4.78125 C 42.644531 -2.988281 40.640625 -1.628906 38.171875 -0.703125 C 35.703125 0.210938 32.71875 0.671875 29.21875 0.671875 C 25.894531 0.671875 23 0.347656 20.53125 -0.296875 C 18.0625 -0.953125 15.992188 -2.03125 14.328125 -3.53125 C 12.671875 -5.03125 11.4375 -6.992188 10.625 -9.421875 C 9.820312 -11.847656 9.421875 -14.832031 9.421875 -18.375 L 9.421875 -36.140625 C 9.421875 -39.460938 9.34375 -42.019531 9.1875 -43.8125 C 9.03125 -45.613281 8.570312 -46.941406 7.8125 -47.796875 C 7.269531 -48.378906 6.535156 -48.769531 5.609375 -48.96875 C 4.691406 -49.164062 3.472656 -49.265625 1.953125 -49.265625 L 1.953125 -51.828125 L 24.90625 -51.828125 L 24.90625 -49.265625 C 23.375 -49.265625 22.140625 -49.175781 21.203125 -49 C 20.265625 -48.820312 19.523438 -48.375 18.984375 -47.65625 C 18.359375 -46.851562 17.953125 -45.5625 17.765625 -43.78125 C 17.585938 -42.007812 17.5 -39.460938 17.5 -36.140625 L 17.5 -17.84375 C 17.5 -15.550781 17.734375 -13.519531 18.203125 -11.75 C 18.679688 -9.976562 19.457031 -8.472656 20.53125 -7.234375 C 21.601562 -6.003906 23.003906 -5.070312 24.734375 -4.4375 C 26.460938 -3.8125 28.582031 -3.5 31.09375 -3.5 C 35.582031 -3.5 38.945312 -4.742188 41.1875 -7.234375 C 43.4375 -9.722656 44.5625 -13.390625 44.5625 -18.234375 L 44.5625 -34.46875 C 44.5625 -38.457031 44.40625 -41.484375 44.09375 -43.546875 C 43.78125 -45.609375 43.195312 -47.066406 42.34375 -47.921875 C 41.707031 -48.503906 40.914062 -48.875 39.96875 -49.03125 C 39.03125 -49.1875 37.867188 -49.265625 36.484375 -49.265625 L 36.484375 -51.828125 L 56 -51.828125 L 56 -49.265625 C 54.5625 -49.265625 53.382812 -49.148438 52.46875 -48.921875 C 51.550781 -48.703125 50.820312 -48.210938 50.28125 -47.453125 C 49.601562 -46.515625 49.148438 -45.046875 48.921875 -43.046875 C 48.703125 -41.046875 48.59375 -38.1875 48.59375 -34.46875 Z M 48.59375 -20.859375 "/></g></g></g></g></g><g transform="matrix(1, 0, 0, 1, 55, 33)"><g clip-path="url(#3faca929da)"><g fill="#ffffff" fill-opacity="1"><g transform="translate(0.86921, 63.361285)"><g><path d="M 17.5 -28.46875 C 19.925781 -28.46875 21.957031 -28.613281 23.59375 -28.90625 C 25.226562 -29.195312 26.523438 -29.65625 27.484375 -30.28125 C 28.453125 -30.914062 29.148438 -31.722656 29.578125 -32.703125 C 30.003906 -33.691406 30.21875 -34.863281 30.21875 -36.21875 L 32.578125 -36.21875 L 32.578125 -17.84375 L 30.21875 -17.84375 C 30.21875 -19.1875 30.023438 -20.347656 29.640625 -21.328125 C 29.265625 -22.316406 28.59375 -23.132812 27.625 -23.78125 C 26.664062 -24.4375 25.363281 -24.929688 23.71875 -25.265625 C 22.082031 -25.609375 20.007812 -25.78125 17.5 -25.78125 L 17.5 -10.5625 C 17.5 -9.082031 17.675781 -7.859375 18.03125 -6.890625 C 18.394531 -5.929688 19.015625 -5.148438 19.890625 -4.546875 C 20.765625 -3.941406 21.921875 -3.515625 23.359375 -3.265625 C 24.796875 -3.015625 26.566406 -2.890625 28.671875 -2.890625 C 31.054688 -2.890625 33.078125 -3.054688 34.734375 -3.390625 C 36.390625 -3.734375 37.78125 -4.304688 38.90625 -5.109375 C 40.03125 -5.921875 40.925781 -6.988281 41.59375 -8.3125 C 42.269531 -9.632812 42.832031 -11.285156 43.28125 -13.265625 L 45.84375 -13.265625 L 44.828125 0 L 3.03125 0 L 3.03125 -2.5625 C 4.601562 -2.601562 5.867188 -2.734375 6.828125 -2.953125 C 7.796875 -3.179688 8.546875 -3.5625 9.078125 -4.09375 C 9.617188 -4.632812 9.976562 -5.398438 10.15625 -6.390625 C 10.34375 -7.378906 10.4375 -8.660156 10.4375 -10.234375 L 10.4375 -41.59375 C 10.4375 -43.164062 10.359375 -44.429688 10.203125 -45.390625 C 10.046875 -46.359375 9.726562 -47.125 9.25 -47.6875 C 8.78125 -48.25 8.097656 -48.628906 7.203125 -48.828125 C 6.304688 -49.035156 5.140625 -49.179688 3.703125 -49.265625 L 3.703125 -51.828125 L 42.609375 -51.828125 L 43.21875 -39.984375 L 40.859375 -39.984375 C 40.585938 -41.773438 40.148438 -43.242188 39.546875 -44.390625 C 38.941406 -45.535156 38.109375 -46.441406 37.046875 -47.109375 C 35.992188 -47.785156 34.660156 -48.257812 33.046875 -48.53125 C 31.429688 -48.800781 29.476562 -48.9375 27.1875 -48.9375 L 18.640625 -48.9375 C 17.878906 -48.9375 17.5 -48.554688 17.5 -47.796875 Z M 17.5 -28.46875 "/></g></g></g></g></g></g></g></svg>